<svg width="389.7311767578125px" height="122px" xmlns="http://www.w3.org/2000/svg" viewBox="55.13441162109376 14 389.7311767578125 122" style="background:#f2eddb" preserveAspectRatio="xMidYMid"><defs><filter id="editing-vintage" x="-100%" y="-100%" width="300%" height="300%"><feConvolveMatrix in="SourceGraphic" result="extrude" order="9,9" divisor="1" kernelMatrix="1 0 0 0 0 0 0 0 0 0 1 0 0 0 0 0 0 0 0 0 1 0 0 0 0 0 0 0 0 0 1 0 0 0 0 0 0 0 0 0 1 0 0 0 0 0 0 0 0 0 1 0 0 0 0 0 0 0 0 0 1 0 0 0 0 0 0 0 0 0 1 0 0 0 0 0 0 0 0 0 1 "> </feConvolveMatrix><feFlood flood-color="#900" result="flood-extrude"></feFlood><feComposite operator="in" in="flood-extrude" in2="extrude" result="extrude-color"></feComposite><feOffset dx="6" dy="6" in="extrude-color" result="extrude-offset"></feOffset><feColorMatrix in="SourceGraphic" result="stroke" type="matrix" values="0 0 0 0 0 0 0 0 0 0 0 0 0 0 0 0 1 0 0 0 "></feColorMatrix><feColorMatrix in="SourceGraphic" result="fill" type="matrix" values="0 0 0 0 0 0 0 0 0 0 0 0 0 0 0 1 0 0 1 0 "></feColorMatrix><feConvolveMatrix in="stroke" result="inner-shadow" order="5,5" divisor="1" kernelMatrix="1 0 0 0 0 0 1 0 0 0 0 0 1 0 0 0 0 0 1 0 0 0 0 0 1 "></feConvolveMatrix><feOffset dx="1" dy="1" in="inner-shadow" result="offset"></feOffset><feComposite operator="in" in="offset" in2="SourceAlpha" result="comp"></feComposite><feFlood flood-color="#000" result="flood3"></feFlood><feComposite operator="in" in="flood3" in2="comp" result="comp2"></feComposite><feColorMatrix in="comp2" result="comp3" type="matrix" values="1 0 0 0 0 0 1 0 0 0 0 0 1 0 0 0 0 0 0.5 0 "></feColorMatrix><feFlood flood-color="#f00" result="flood1"></feFlood><feComposite operator="in" in="flood1" in2="fill" result="fill2"></feComposite><feFlood flood-color="#fff" result="flood2"></feFlood><feComposite operator="in" in="flood2" in2="stroke" result="stroke2"></feComposite><feMerge result="obj"><feMergeNode in="extrude-offset"></feMergeNode><feMergeNode in="fill2"></feMergeNode><feMergeNode in="comp3"></feMergeNode></feMerge><feConvolveMatrix in="SourceAlpha" result="shadow" order="9,9" divisor="1" kernelMatrix="1 0 0 0 0 0 0 0 0 0 1 0 0 0 0 0 0 0 0 0 1 0 0 0 0 0 0 0 0 0 1 0 0 0 0 0 0 0 0 0 1 0 0 0 0 0 0 0 0 0 1 0 0 0 0 0 0 0 0 0 1 0 0 0 0 0 0 0 0 0 1 0 0 0 0 0 0 0 0 0 1 "></feConvolveMatrix><feOffset dx="12" dy="12" in="shadow" result="shadow-offset"></feOffset><feFlood flood-color="#444" result="flood-shadow"></feFlood><feComposite operator="in" in="flood-shadow" in2="shadow-offset" result="shadow-color"></feComposite><feMerge><feMergeNode in="shadow-color"></feMergeNode><feMergeNode in="obj"></feMergeNode></feMerge></filter></defs><g transform="translate(-9,-9)"><g filter="url(#editing-vintage)"><g transform="translate(114.89497831463814, 104.1200008392334)"><path d="M26.11-42.69L26.11-42.69L26.11-42.69Q41.79-42.69 41.79-31.62L41.79-31.62L41.79-31.62Q41.79-25.54 37.89-21.89L37.89-21.89L37.89-21.89Q34.05-18.24 27.33-18.24L27.33-18.24L27.33-18.24Q24.19-18.24 21.76-20.03L21.76-20.03L21.76-20.03Q20.61-20.80 19.84-21.82L19.84-21.82L19.84-21.82Q24.51-21.82 26.98-24.67L26.98-24.67L26.98-24.67Q29.44-27.52 29.44-33.09L29.44-33.09L29.44-33.09Q29.44-38.66 23.94-38.66L23.94-38.66L22.40-38.66L22.40-38.66Q22.02-38.66 21.70-38.59L21.70-38.59L14.34 0L0.45 0L8.32-41.92L8.32-41.92Q15.17-42.56 19.14-42.62L19.14-42.62L19.14-42.62Q23.10-42.69 26.11-42.69ZM62.14-17.98L62.14-17.98L62.14-17.98Q64.45-22.08 64.45-26.24L64.45-26.24L64.45-26.24Q64.45-28.99 62.46-28.99L62.46-28.99L62.46-28.99Q60.93-28.99 59.33-26.37L59.33-26.37L59.33-26.37Q57.66-23.74 57.15-20.35L57.15-20.35L53.82 0L40.58 1.28L47.10-32.64L57.66-33.92L56.51-27.46L56.51-27.46Q59.65-33.92 66.69-33.92L66.69-33.92L66.69-33.92Q70.40-33.92 72.42-32L72.42-32L72.42-32Q74.43-30.08 74.43-26.14L74.43-26.14L74.43-26.14Q74.43-22.21 71.84-19.71L71.84-19.71L71.84-19.71Q69.25-17.22 64.83-17.22L64.83-17.22L64.83-17.22Q62.91-17.22 62.14-17.98ZM89.41 1.28L89.41 1.28L89.41 1.28Q75.33 1.28 75.33-11.97L75.33-11.97L75.33-11.97Q75.33-21.38 80.51-27.46L80.51-27.46L80.51-27.46Q86.02-33.92 95.55-33.92L95.55-33.92L95.55-33.92Q102.46-33.92 105.98-30.72L105.98-30.72L105.98-30.72Q109.50-27.52 109.50-20.80L109.50-20.80L109.50-20.80Q109.50-10.56 104-4.61L104-4.61L104-4.61Q98.62 1.28 89.41 1.28ZM91.07-26.56L91.07-26.56L91.07-26.56Q90.30-24.83 89.70-22.24L89.70-22.24L89.70-22.24Q89.09-19.65 88.32-15.55L88.32-15.55L88.32-15.55Q87.55-11.46 87.55-6.40L87.55-6.40L87.55-6.40Q87.55-4.74 88.10-3.65L88.10-3.65L88.10-3.65Q88.64-2.56 90.11-2.56L90.11-2.56L90.11-2.56Q91.58-2.56 92.51-3.26L92.51-3.26L92.51-3.26Q93.44-3.97 94.14-5.63L94.14-5.63L94.14-5.63Q95.42-8.58 96.45-14.05L96.45-14.05L96.45-14.05Q97.47-19.52 97.57-21.89L97.57-21.89L97.57-21.89Q97.66-24.26 97.66-26.02L97.66-26.02L97.66-26.02Q97.66-27.78 97.15-28.93L97.15-28.93L97.15-28.93Q96.64-30.08 95.20-30.08L95.20-30.08L95.20-30.08Q93.76-30.08 92.80-29.18L92.80-29.18L92.80-29.18Q91.84-28.29 91.07-26.56ZM104.38 7.62L104.38 7.62L104.38 7.62Q107.71 7.36 110.14 3.20L110.14 3.20L110.14 3.20Q112 0 113.22-5.89L113.22-5.89L118.40-32.64L131.26-33.92L125.82-5.89L125.82-5.89Q123.71 4.80 120.45 8.32L120.45 8.32L120.45 8.32Q118.72 10.24 116.48 10.88L116.48 10.88L116.48 10.88Q114.24 11.52 111.68 11.52L111.68 11.52L111.68 11.52Q106.30 11.52 104.38 7.62ZM119.42-41.54L119.42-41.54L119.42-41.54Q119.42-44.03 121.50-45.38L121.50-45.38L121.50-45.38Q123.58-46.72 126.59-46.72L126.59-46.72L126.59-46.72Q129.60-46.72 131.42-45.38L131.42-45.38L131.42-45.38Q133.25-44.03 133.25-41.54L133.25-41.54L133.25-41.54Q133.25-39.04 131.23-37.76L131.23-37.76L131.23-37.76Q129.22-36.48 126.21-36.48L126.21-36.48L126.21-36.48Q123.20-36.48 121.31-37.76L121.31-37.76L121.31-37.76Q119.42-39.04 119.42-41.54ZM159.49-10.82L159.49-10.82L159.49-10.82Q161.09-9.73 161.09-7.33L161.09-7.33L161.09-7.33Q161.09-4.93 159.87-3.39L159.87-3.39L159.87-3.39Q158.66-1.86 156.67-0.83L156.67-0.83L156.67-0.83Q152.58 1.28 148.16 1.28L148.16 1.28L148.16 1.28Q143.74 1.28 141.15 0.32L141.15 0.32L141.15 0.32Q138.56-0.64 136.83-2.43L136.83-2.43L136.83-2.43Q133.44-5.82 133.44-12.03L133.44-12.03L133.44-12.03Q133.44-21.70 138.69-27.58L138.69-27.58L138.69-27.58Q144.32-33.92 154.11-33.92L154.11-33.92L154.11-33.92Q160.19-33.92 163.20-31.36L163.20-31.36L163.20-31.36Q165.44-29.44 165.44-26.30L165.44-26.30L165.44-26.30Q165.44-15.04 145.98-15.04L145.98-15.04L145.98-15.04Q145.73-13.38 145.73-11.97L145.73-11.97L145.73-11.97Q145.73-9.02 147.04-7.90L147.04-7.90L147.04-7.90Q148.35-6.78 150.78-6.78L150.78-6.78L150.78-6.78Q153.22-6.78 155.81-7.90L155.81-7.90L155.81-7.90Q158.40-9.02 159.49-10.82ZM146.43-17.79L146.43-17.79L146.43-17.79Q150.98-17.79 153.60-20.61L153.60-20.61L153.60-20.61Q156.22-23.30 156.22-27.58L156.22-27.58L156.22-27.58Q156.22-29.06 155.68-29.86L155.68-29.86L155.68-29.86Q155.14-30.66 154.05-30.66L154.05-30.66L154.05-30.66Q152.96-30.66 152.03-30.24L152.03-30.24L152.03-30.24Q151.10-29.82 150.14-28.42L150.14-28.42L150.14-28.42Q147.78-25.22 146.43-17.79ZM199.04-26.62L199.04-26.62L199.04-26.62Q199.04-23.94 196.80-22.27L196.80-22.27L196.80-22.27Q194.56-20.61 190.91-20.61L190.91-20.61L190.91-20.61Q189.38-20.61 188.48-21.06L188.48-21.06L188.48-21.06Q189.18-22.72 189.41-24.80L189.41-24.80L189.41-24.80Q189.63-26.88 189.63-27.46L189.63-27.46L189.63-27.46Q189.63-30.14 187.78-30.14L187.78-30.14L187.78-30.14Q186.50-30.14 185.06-28.54L185.06-28.54L185.06-28.54Q183.62-26.94 182.40-24.45L182.40-24.45L182.40-24.45Q179.71-18.69 179.71-12.86L179.71-12.86L179.71-12.86Q179.71-9.66 180.93-8.22L180.93-8.22L180.93-8.22Q182.14-6.78 184.83-6.78L184.83-6.78L184.83-6.78Q188.54-6.78 191.49-9.86L191.49-9.86L191.49-9.86Q192.32-10.82 192.77-11.90L192.77-11.90L192.77-11.90Q195.20-10.62 195.20-7.10L195.20-7.10L195.20-7.10Q195.20-3.52 191.23-1.15L191.23-1.15L191.23-1.15Q187.14 1.28 180.61 1.28L180.61 1.28L180.61 1.28Q167.62 1.28 167.62-12.48L167.62-12.48L167.62-12.48Q167.62-22.53 173.31-28.29L173.31-28.29L173.31-28.29Q178.82-33.92 188.93-33.92L188.93-33.92L188.93-33.92Q199.04-33.92 199.04-26.62ZM201.79-6.40L201.79-6.40L201.79-6.40Q201.79-8.13 202.69-12.48L202.69-12.48L206.08-29.76L202.30-29.76L202.56-31.68L202.56-31.68Q210.24-33.98 217.66-39.62L217.66-39.62L220.74-39.62L219.20-32.64L224.19-32.64L223.62-29.76L218.69-29.76L215.42-12.48L215.42-12.48Q214.59-8.51 214.59-7.17L214.59-7.17L214.59-7.17Q214.59-4.10 217.28-3.46L217.28-3.46L217.28-3.46Q216.64-1.28 214.34 0L214.34 0L214.34 0Q212.03 1.28 208.77 1.28L208.77 1.28L208.77 1.28Q205.50 1.28 203.65-0.77L203.65-0.77L203.65-0.77Q201.79-2.82 201.79-6.40ZM236.93-1.60L236.54-9.47L244.54-15.62L249.54-19.71L249.54-19.71Q252.10-21.89 253.95-23.81L253.95-23.81L253.95-23.81Q257.34-27.20 257.34-30.46L257.34-30.46L257.34-30.46Q257.34-32.38 256.10-33.41L256.10-33.41L256.10-33.41Q254.85-34.43 253.02-34.43L253.02-34.43L253.02-34.43Q251.20-34.43 249.89-34.02L249.89-34.02L249.89-34.02Q248.58-33.60 247.42-32.90L247.42-32.90L247.42-32.90Q244.99-31.30 243.84-28.86L243.84-28.86L243.84-28.86Q242.24-28.93 241.18-30.27L241.18-30.27L241.18-30.27Q240.13-31.62 240.13-33.57L240.13-33.57L240.13-33.57Q240.13-35.52 241.34-37.34L241.34-37.34L241.34-37.34Q242.56-39.17 244.74-40.58L244.74-40.58L244.74-40.58Q249.47-43.52 255.97-43.52L255.97-43.52L255.97-43.52Q262.46-43.52 266.11-40.70L266.11-40.70L266.11-40.70Q269.76-37.89 269.76-33.09L269.76-33.09L269.76-33.09Q269.76-29.50 268-26.24L268-26.24L268-26.24Q266.24-22.98 261.57-19.65L261.57-19.65L254.66-14.78L250.50-12.03L245.18-8.77L247.42-8.51L247.42-8.51Q248.96-8.32 251.65-8.32L251.65-8.32L251.65-8.32Q254.34-8.32 256.58-8.61L256.58-8.61L256.58-8.61Q258.82-8.90 260.74-9.47L260.74-9.47L260.74-9.47Q264.96-10.62 266.30-12.22L266.30-12.22L266.30-12.22Q267.01-11.71 267.55-10.40L267.55-10.40L267.55-10.40Q268.10-9.09 268.10-7.49L268.10-7.49L268.10-7.49Q268.10-2.69 264.45-0.70L264.45-0.70L264.45-0.70Q260.80 1.28 253.31 1.28L253.31 1.28L253.31 1.28Q249.41 1.28 244.22 0.16L244.22 0.16L244.22 0.16Q239.04-0.96 236.93-1.60L236.93-1.60Z" fill="#f00" stroke="#0f0" stroke-width="1.8"></path></g></g><g><g transform="translate(114.89500120282173, 104.12000846862793)"><path d="M26.11-42.69L26.11-42.69L26.11-42.69Q41.79-42.69 41.79-31.62L41.79-31.62L41.79-31.62Q41.79-25.54 37.89-21.89L37.89-21.89L37.89-21.89Q34.05-18.24 27.33-18.24L27.33-18.24L27.33-18.24Q24.19-18.24 21.76-20.03L21.76-20.03L21.76-20.03Q20.61-20.80 19.84-21.82L19.84-21.82L19.84-21.82Q24.51-21.82 26.98-24.67L26.98-24.67L26.98-24.67Q29.44-27.52 29.44-33.09L29.44-33.09L29.44-33.09Q29.44-38.66 23.94-38.66L23.94-38.66L22.40-38.66L22.40-38.66Q22.02-38.66 21.70-38.59L21.70-38.59L14.34 0L0.45 0L8.32-41.92L8.32-41.92Q15.17-42.56 19.14-42.62L19.14-42.62L19.14-42.62Q23.10-42.69 26.11-42.69ZM62.14-17.98L62.14-17.98L62.14-17.98Q64.45-22.08 64.45-26.24L64.45-26.24L64.45-26.24Q64.45-28.99 62.46-28.99L62.46-28.99L62.46-28.99Q60.93-28.99 59.33-26.37L59.33-26.37L59.33-26.37Q57.66-23.74 57.15-20.35L57.15-20.35L53.82 0L40.58 1.28L47.10-32.64L57.66-33.92L56.51-27.46L56.51-27.46Q59.65-33.92 66.69-33.92L66.69-33.92L66.69-33.92Q70.40-33.92 72.42-32L72.42-32L72.42-32Q74.43-30.08 74.43-26.14L74.43-26.14L74.43-26.14Q74.43-22.21 71.84-19.71L71.84-19.71L71.84-19.71Q69.25-17.22 64.83-17.22L64.83-17.22L64.83-17.22Q62.91-17.22 62.14-17.98ZM89.41 1.28L89.41 1.28L89.41 1.28Q75.33 1.28 75.33-11.97L75.33-11.97L75.33-11.97Q75.33-21.38 80.51-27.46L80.51-27.46L80.51-27.46Q86.02-33.92 95.55-33.92L95.55-33.92L95.55-33.92Q102.46-33.92 105.98-30.72L105.98-30.72L105.98-30.72Q109.50-27.52 109.50-20.80L109.50-20.80L109.50-20.80Q109.50-10.56 104-4.61L104-4.61L104-4.61Q98.62 1.28 89.41 1.28ZM91.07-26.56L91.07-26.56L91.07-26.56Q90.30-24.83 89.70-22.24L89.70-22.24L89.70-22.24Q89.09-19.65 88.32-15.55L88.32-15.55L88.32-15.55Q87.55-11.46 87.55-6.40L87.55-6.40L87.55-6.40Q87.55-4.74 88.10-3.65L88.10-3.65L88.10-3.65Q88.64-2.56 90.11-2.56L90.11-2.56L90.11-2.56Q91.58-2.56 92.51-3.26L92.51-3.26L92.51-3.26Q93.44-3.97 94.14-5.63L94.14-5.63L94.14-5.63Q95.42-8.58 96.45-14.05L96.45-14.05L96.45-14.05Q97.47-19.52 97.57-21.89L97.57-21.89L97.57-21.89Q97.66-24.26 97.66-26.02L97.66-26.02L97.66-26.02Q97.66-27.78 97.15-28.93L97.15-28.93L97.15-28.93Q96.64-30.08 95.20-30.08L95.20-30.08L95.20-30.08Q93.76-30.08 92.80-29.18L92.80-29.18L92.80-29.18Q91.84-28.29 91.07-26.56ZM104.38 7.62L104.38 7.62L104.38 7.62Q107.71 7.36 110.14 3.20L110.14 3.20L110.14 3.20Q112 0 113.22-5.89L113.22-5.89L118.40-32.64L131.26-33.92L125.82-5.89L125.82-5.89Q123.71 4.80 120.45 8.32L120.45 8.32L120.45 8.32Q118.72 10.24 116.48 10.88L116.48 10.88L116.48 10.88Q114.24 11.52 111.68 11.52L111.68 11.52L111.68 11.52Q106.30 11.52 104.38 7.62ZM119.42-41.54L119.42-41.54L119.42-41.54Q119.42-44.03 121.50-45.38L121.50-45.38L121.50-45.38Q123.58-46.72 126.59-46.72L126.59-46.72L126.59-46.72Q129.60-46.72 131.42-45.38L131.42-45.38L131.42-45.38Q133.25-44.03 133.25-41.54L133.25-41.54L133.25-41.54Q133.25-39.04 131.23-37.76L131.23-37.76L131.23-37.76Q129.22-36.48 126.21-36.48L126.21-36.48L126.21-36.48Q123.20-36.48 121.31-37.76L121.31-37.76L121.31-37.76Q119.42-39.04 119.42-41.54ZM159.49-10.82L159.49-10.82L159.49-10.82Q161.09-9.73 161.09-7.33L161.09-7.33L161.09-7.33Q161.09-4.93 159.87-3.39L159.87-3.39L159.87-3.39Q158.66-1.86 156.67-0.83L156.67-0.83L156.67-0.83Q152.58 1.28 148.16 1.28L148.16 1.28L148.16 1.28Q143.74 1.28 141.15 0.32L141.15 0.32L141.15 0.32Q138.56-0.64 136.83-2.43L136.83-2.43L136.83-2.43Q133.44-5.82 133.44-12.03L133.44-12.03L133.44-12.03Q133.44-21.70 138.69-27.58L138.69-27.58L138.69-27.58Q144.32-33.92 154.11-33.92L154.11-33.92L154.11-33.92Q160.19-33.92 163.20-31.36L163.20-31.36L163.20-31.36Q165.44-29.44 165.44-26.30L165.44-26.30L165.44-26.30Q165.44-15.04 145.98-15.04L145.98-15.04L145.98-15.04Q145.73-13.38 145.73-11.97L145.73-11.97L145.73-11.97Q145.73-9.02 147.04-7.90L147.04-7.90L147.04-7.90Q148.35-6.78 150.78-6.78L150.78-6.78L150.78-6.78Q153.22-6.78 155.81-7.90L155.81-7.90L155.81-7.90Q158.40-9.02 159.49-10.82ZM146.43-17.79L146.43-17.79L146.43-17.79Q150.98-17.79 153.60-20.61L153.60-20.61L153.60-20.61Q156.22-23.30 156.22-27.58L156.22-27.58L156.22-27.58Q156.22-29.06 155.68-29.86L155.68-29.86L155.68-29.86Q155.14-30.66 154.05-30.66L154.05-30.66L154.05-30.66Q152.96-30.66 152.03-30.24L152.03-30.24L152.03-30.24Q151.10-29.82 150.14-28.42L150.14-28.42L150.14-28.42Q147.78-25.22 146.43-17.79ZM199.04-26.62L199.04-26.62L199.04-26.62Q199.04-23.94 196.80-22.27L196.80-22.27L196.80-22.27Q194.56-20.61 190.91-20.61L190.91-20.61L190.91-20.61Q189.38-20.61 188.48-21.06L188.48-21.06L188.48-21.06Q189.18-22.72 189.41-24.80L189.41-24.80L189.41-24.80Q189.63-26.88 189.63-27.46L189.63-27.46L189.63-27.46Q189.63-30.14 187.78-30.14L187.78-30.14L187.78-30.14Q186.50-30.14 185.06-28.54L185.06-28.54L185.06-28.54Q183.62-26.94 182.40-24.45L182.40-24.45L182.40-24.45Q179.71-18.69 179.71-12.86L179.71-12.86L179.71-12.86Q179.71-9.66 180.93-8.22L180.93-8.22L180.93-8.22Q182.14-6.78 184.83-6.78L184.83-6.78L184.83-6.78Q188.54-6.78 191.49-9.86L191.49-9.86L191.49-9.86Q192.32-10.82 192.77-11.90L192.77-11.90L192.77-11.90Q195.20-10.62 195.20-7.10L195.20-7.10L195.20-7.10Q195.20-3.52 191.23-1.15L191.23-1.15L191.23-1.15Q187.14 1.28 180.61 1.28L180.61 1.28L180.61 1.28Q167.62 1.28 167.62-12.48L167.62-12.48L167.62-12.48Q167.62-22.53 173.31-28.29L173.31-28.29L173.31-28.29Q178.82-33.92 188.93-33.92L188.93-33.92L188.93-33.92Q199.04-33.92 199.04-26.62ZM201.79-6.40L201.79-6.40L201.79-6.40Q201.79-8.13 202.69-12.48L202.69-12.48L206.08-29.76L202.30-29.76L202.56-31.68L202.56-31.68Q210.24-33.98 217.66-39.62L217.66-39.62L220.74-39.62L219.20-32.64L224.19-32.64L223.62-29.76L218.69-29.76L215.42-12.48L215.42-12.48Q214.59-8.51 214.59-7.17L214.59-7.17L214.59-7.17Q214.59-4.10 217.28-3.46L217.28-3.46L217.28-3.46Q216.64-1.28 214.34 0L214.34 0L214.34 0Q212.03 1.28 208.77 1.28L208.77 1.28L208.77 1.28Q205.50 1.28 203.65-0.77L203.65-0.77L203.65-0.77Q201.79-2.82 201.79-6.40ZM236.93-1.60L236.54-9.47L244.54-15.62L249.54-19.71L249.54-19.71Q252.10-21.89 253.95-23.81L253.95-23.81L253.95-23.81Q257.34-27.20 257.34-30.46L257.34-30.46L257.34-30.46Q257.34-32.38 256.10-33.41L256.10-33.41L256.10-33.41Q254.85-34.43 253.02-34.43L253.02-34.43L253.02-34.43Q251.20-34.43 249.89-34.02L249.89-34.02L249.89-34.02Q248.58-33.60 247.42-32.90L247.42-32.90L247.42-32.90Q244.99-31.30 243.84-28.86L243.84-28.86L243.84-28.86Q242.24-28.93 241.18-30.27L241.18-30.27L241.18-30.27Q240.13-31.62 240.13-33.57L240.13-33.57L240.13-33.57Q240.13-35.52 241.34-37.34L241.34-37.34L241.34-37.34Q242.56-39.17 244.74-40.58L244.74-40.58L244.74-40.58Q249.47-43.52 255.97-43.52L255.97-43.52L255.97-43.52Q262.46-43.52 266.11-40.70L266.11-40.70L266.11-40.70Q269.76-37.89 269.76-33.09L269.76-33.09L269.76-33.09Q269.76-29.50 268-26.24L268-26.24L268-26.24Q266.24-22.98 261.57-19.65L261.57-19.65L254.66-14.78L250.50-12.03L245.18-8.77L247.42-8.51L247.42-8.51Q248.96-8.32 251.65-8.32L251.65-8.32L251.65-8.32Q254.34-8.32 256.58-8.61L256.58-8.61L256.58-8.61Q258.82-8.90 260.74-9.47L260.74-9.47L260.74-9.47Q264.96-10.62 266.30-12.22L266.30-12.22L266.30-12.22Q267.01-11.71 267.55-10.40L267.55-10.40L267.55-10.40Q268.10-9.09 268.10-7.49L268.10-7.49L268.10-7.49Q268.10-2.69 264.45-0.70L264.45-0.70L264.45-0.70Q260.80 1.28 253.31 1.28L253.31 1.28L253.31 1.28Q249.41 1.28 244.22 0.16L244.22 0.16L244.22 0.16Q239.04-0.96 236.93-1.60L236.93-1.60Z" fill="none" stroke="#fff" stroke-width="2.1"></path></g></g></g><style>text {
  font-size: 64px;
  font-family: Arial Black;
  dominant-baseline: central;
  text-anchor: middle;
}</style></svg>